<svg xmlns="http://www.w3.org/2000/svg" viewBox="0 0 252.63 385.25"><g fill="#b78aff"><path d="M252.6 190.8c-.1 12.3-3.7 23.7-9.8 34.4a95 95 0 0 1-25 28.6 108.2 108.2 0 0 1-26.2 14.7c-9.1 3.7-18.5 6.5-28.3 7.4-6.6.6-13.2.7-19.8 1l-.1-.8 6-2c15.8-5.6 30-13.9 41.5-26.2 10.7-11.5 17-25 18.2-40.8 1.3-16.8-2.8-31.9-13.1-45.3-6.5-8.4-14.5-15.1-23-21.3a277.8 277.8 0 0 0-41.5-25.5c-11.6-5.7-23.4-10.9-35.4-15.7-8.7-3.5-17.8-6.1-26.8-9.2-.7-.2-1.4-.6-2.1-.9-4.2-1.8-5.5-4.1-3.7-8.2a100.4 100.4 0 0 1 7.6-15c5.5-8.6 11.1-17.2 17.6-25 6.2-7.5 13.4-14.2 20.5-21a140.2 140.2 0 0 1 28.2-20.4l-5 7.1a216.5 216.5 0 0 0-23.8 42.8 46.7 46.7 0 0 0-3.2 10.9c-.8 5.8 1.2 8.6 6.2 10.2 8.2 2.6 16.5 5.1 24.6 8a263.4 263.4 0 0 1 52.6 25.2 195.4 195.4 0 0 1 35.6 28.3 112.8 112.8 0 0 1 22.4 28.2 62.4 62.4 0 0 1 5.7 26.5Z"/><path d="M177.9 316.9c-3.4 6.9-7.9 13-12.6 19a194.9 194.9 0 0 1-23.7 25.4 235.8 235.8 0 0 1-31.3 23.4 2.7 2.7 0 0 1-1.7.4c1.9-2.9 4-5.8 5.8-8.8 5.9-10 11.8-19.9 17.5-30 2.2-4 4.1-8.2 4-13-.1-3.4-1.3-5-4.4-6.2-11.2-4.3-22.5-8.3-33.4-13.2-9.5-4.2-18.6-9.3-27.7-14.4A191.8 191.8 0 0 1 36.5 275c-11.2-10-20.8-21.2-27.9-34.5-7.1-13.6-10.6-27.8-7.2-43.2a69.8 69.8 0 0 1 14.5-29.4 100.8 100.8 0 0 1 26.9-23c14-8.4 29-14.1 45.4-16.1a99.7 99.7 0 0 1 22.9-.3c-4.8 1.6-9.3 2.9-13.6 4.6a103.4 103.4 0 0 0-34.3 21.3c-8.6 8.2-15.4 17.5-19.1 28.8-5.5 16.6-3.7 32.6 5.2 47.7a94.3 94.3 0 0 0 19.4 22.7c16.9 14.8 35.8 26.5 55.7 36.6a343.1 343.1 0 0 0 45.7 18.8l5.7 2c2.7 1.1 3.4 3.1 2.1 5.8Z"/><path d="M157.8 200.3c-16.3 11.6-27.3 26.5-31.8 46.3-4.6-19.7-15.6-34.7-31.9-46.3 16.2-11.4 27.2-26.1 31.8-45.5 4.7 19.4 15.5 34.3 31.9 45.5Z"/></g></svg>
