<svg id="Слой_1" data-name="Слой 1" xmlns="http://www.w3.org/2000/svg" viewBox="0 0 252.63 385.25"><defs><style>.cls-1{fill:#fff;}</style></defs><path class="cls-1" d="M382.32,254.18c-.07,12.33-3.72,23.71-9.76,34.44a95,95,0,0,1-25,28.64A108.21,108.21,0,0,1,321.3,332c-9.11,3.67-18.48,6.5-28.28,7.42-6.58.61-13.22.65-19.83,1l-.09-.78c2-.68,4-1.35,5.95-2.05,15.82-5.59,30-13.88,41.49-26.21,10.68-11.46,17-25,18.2-40.77,1.25-16.75-2.8-31.92-13.11-45.27-6.45-8.36-14.5-15.05-23-21.25a277.82,277.82,0,0,0-41.47-25.46c-11.58-5.67-23.41-10.86-35.36-15.69-8.73-3.53-17.83-6.14-26.75-9.16-.72-.25-1.42-.56-2.12-.86-4.17-1.78-5.46-4.06-3.7-8.19a100.41,100.41,0,0,1,7.58-15c5.52-8.56,11.08-17.16,17.55-25,6.21-7.51,13.41-14.24,20.53-21a140.16,140.16,0,0,1,28.2-20.39q-2.47,3.56-5,7.09a216.53,216.53,0,0,0-23.77,42.77,46.68,46.68,0,0,0-3.15,10.92c-.81,5.75,1.16,8.57,6.21,10.17,8.2,2.59,16.45,5.06,24.55,8a263.42,263.42,0,0,1,52.61,25.23,195.36,195.36,0,0,1,35.6,28.31A112.78,112.78,0,0,1,376.59,228,62.39,62.39,0,0,1,382.32,254.18Z" transform="translate(-129.68 -63.38)"/><path class="cls-1" d="M307.59,380.33c-3.35,6.91-7.9,13-12.6,19.05a194.94,194.94,0,0,1-23.7,25.38A235.75,235.75,0,0,1,240,448.2a2.67,2.67,0,0,1-1.69.42c1.94-2.92,4-5.77,5.78-8.79,5.9-9.95,11.84-19.89,17.46-30,2.19-4,4.14-8.19,4-13-.12-3.42-1.26-5-4.43-6.25-11.17-4.34-22.51-8.33-33.44-13.21-9.48-4.23-18.62-9.31-27.7-14.38a191.85,191.85,0,0,1-33.87-24.45c-11.2-9.95-20.84-21.2-27.86-34.48-7.15-13.56-10.62-27.84-7.26-43.19a69.8,69.8,0,0,1,14.53-29.39,100.75,100.75,0,0,1,26.85-23.06c14-8.36,29-14.09,45.38-16.11a99.69,99.69,0,0,1,22.93-.29c-4.75,1.6-9.25,2.94-13.61,4.63a103.42,103.42,0,0,0-34.27,21.26c-8.61,8.15-15.41,17.5-19.14,28.81-5.48,16.63-3.73,32.58,5.2,47.65a94.3,94.3,0,0,0,19.44,22.69c16.86,14.78,35.75,26.48,55.69,36.6a343.12,343.12,0,0,0,45.71,18.82q2.85,1,5.67,2C308.14,375.61,308.9,377.61,307.59,380.33Z" transform="translate(-129.68 -63.38)"/><path class="cls-1" d="M287.51,263.69c-16.31,11.57-27.34,26.48-31.82,46.32-4.57-19.75-15.57-34.68-31.9-46.32C240,252.32,251,237.55,255.61,218.2,260.31,237.56,271.16,252.45,287.51,263.69Z" transform="translate(-129.68 -63.38)"/></svg>