<svg id="Слой_2" data-name="Слой 2" xmlns="http://www.w3.org/2000/svg" viewBox="0 0 364.5 341.11"><defs><style>.cls-1{fill:#8f5cf8;}</style></defs><path class="cls-1" d="M270.74,235.05V92.81L249.87,69,229.11,92.88V235.65l-18.05,18.27c5.95,6.25,11.88,12.44,18.19,19.06V386.52L250,410.14c.75-.81,1.47-1.52,2.12-2.28,5.17-5.95,10.2-12,15.52-17.81a11.1,11.1,0,0,0,3-8.19q-.09-52.47,0-104.93v-5.16l.81.38,17.11-18.27Zm-16.92,34.68V375.27l-3.94,3.6c-1.28-1.28-2.51-2.49-3.84-3.81V270.53c-5.66-5.91-10.48-11-15.1-15.81,5.21-5.48,10.06-10.55,15.1-15.82V105.1l3.92-4.25c1.35,1.37,2.54,2.61,3.79,3.9V236.5c6.06,6.43,10.89,11.56,15.57,16.51Z" transform="translate(-67.98 -69.03)"/><path class="cls-1" d="M218.56,277.66c-9.7-7.34-16.66-17.68-26.93-24.84-7.27-5.09-13.13-12.22-19.57-18.39V201.11l37.63-37V140.08c-18.17,17.56-36.82,35.58-55,53.19V244.9c8.15,7.75,16.35,15.54,24.77,23.52-2.06,2-3.8,3.73-5.39,5.31H153.61l-4.35-5.43H141q-16.47-15.75-31.8-30.4C95.8,251,81.9,264.53,68,278.13l41.71,41.15,33.54-33.44h31.08l5.92,5.89c-7,6.63-14,13.19-20.68,19.48l50.1,50.34v-24.8c-8.34-8.09-16.73-16.25-24.34-23.64Zm-109.48,17L92.87,278.59l16.58-16c5,4.86,10.65,10.29,16.28,15.74C120.13,283.81,114.62,289.23,109.08,294.65Zm83-27.23,10.32,11.35c-3.27,3.35-6.6,6.78-9.94,10.22-3.75-3.72-7.13-7.08-10.58-10.49Z" transform="translate(-67.98 -69.03)"/><path class="cls-1" d="M390.89,237.61,359,268.51h-8.28l-3.13,5.19H327.06c-1.94-2.11-3.57-3.9-5.36-5.84,7.84-7.51,16-15.32,24-23v-51c-18.17-18.41-36.38-36.82-55-55.66v26.29c12.48,12.26,25.16,24.73,37.69,37.06v32.83c-15.78,14.56-31.5,29.06-46.46,42.88l32.42,35.86-23.41,23V361c16.49-16.25,33-32.57,50.25-49.55l-20.93-19.58c2.28-2.48,4-4.36,5.54-6.08h31.24q17.28,17.16,33.64,33.4l41.79-41.09ZM308.08,288.3l-10.14-9.41c3.58-3.53,6.94-6.83,10.5-10.31,3.12,3,6.56,6.24,10.1,9.6Zm66.54-10.43,16-16.32,16.79,17.55L391.1,294.92C385.82,289.47,380.43,283.87,374.62,277.87Z" transform="translate(-67.98 -69.03)"/></svg>